<?xml version="1.0" standalone="no"?>
<!DOCTYPE svg PUBLIC "-//W3C//DTD SVG 20010904//EN"
 "http://www.w3.org/TR/2001/REC-SVG-20010904/DTD/svg10.dtd">
<svg version="1.0" xmlns="http://www.w3.org/2000/svg"
 width="1280.000000pt" height="1244.000000pt" viewBox="0 0 1280.000000 1244.000000"
 preserveAspectRatio="xMidYMid meet">
<metadata>
Created by potrace 1.15, written by Peter Selinger 2001-2017
</metadata>
<g transform="translate(0.000000,1244.000000) scale(0.100000,-0.100000)"
fill="#c7c7c7" stroke="none">
<path d="M12378 12425 c-320 -64 -782 -370 -1443 -954 -303 -268 -541 -496
-1066 -1021 -845 -845 -1424 -1460 -2964 -3150 -729 -800 -1164 -1275 -1439
-1570 -762 -818 -1226 -1266 -1332 -1286 -75 -14 -355 3 -514 31 -351 61 -860
204 -1655 465 -1099 360 -1338 425 -1585 425 -128 0 -138 -1 -198 -29 -76 -35
-133 -96 -162 -172 -42 -112 -27 -170 115 -459 454 -921 1252 -1984 2245
-2989 932 -943 1730 -1535 2275 -1687 106 -30 282 -33 369 -6 87 27 174 113
226 224 124 266 565 989 1338 2198 495 772 1036 1605 2977 4575 1617 2474
2406 3705 2865 4470 140 232 340 589 340 605 0 6 -39 84 -86 172 -62 116 -92
163 -107 167 -35 9 -127 5 -199 -9z"/>
</g>
</svg>
